<svg width="1920" height="358" viewBox="0 0 1920 358" fill="none" xmlns="http://www.w3.org/2000/svg">
<path fill-rule="evenodd" clip-rule="evenodd" d="M373.085 259.798V267.859H391.773H444.172H461.028V259.798L443.5 256.768C443.331 253.164 443.188 249.288 443.073 245.141C442.829 236.346 442.584 227.186 442.34 217.659V191.276V137.237C443.793 135.999 445.259 134.836 446.737 133.746C451.379 130.082 456.142 127.395 461.028 125.685C465.914 123.731 470.555 122.754 474.952 122.754C482.281 122.754 487.655 124.83 491.075 128.983C494.739 133.136 496.572 140.831 496.572 152.068V191.276V217.659C496.572 227.186 496.449 236.346 496.205 245.141C496.091 249.26 495.923 253.11 495.701 256.693L477.517 259.798V267.859H494.739H547.505H564.361V259.798L546.835 256.806C546.664 253.191 546.521 249.303 546.406 245.141C546.162 236.346 545.917 227.186 545.673 217.659V191.276V150.969C545.673 131.426 541.52 117.257 533.214 108.463C524.909 99.4243 513.794 94.905 499.869 94.905C491.319 94.905 483.258 96.4929 475.685 99.6686C468.357 102.6 461.394 107.241 454.799 113.593C450.544 117.532 446.391 122.183 442.34 127.545V79.1486L443.806 4.03071L438.676 0L371.619 17.5886V24.1843L393.605 30.0471V191.276C393.605 199.337 393.483 208.131 393.239 217.659C393.239 227.186 393.117 236.346 392.872 245.141C392.759 249.227 392.619 253.049 392.453 256.608L373.085 259.798ZM581.348 267.859V259.798L600.716 256.608C600.882 253.049 601.022 249.227 601.135 245.141C601.38 236.346 601.502 227.186 601.502 217.659C601.746 208.131 601.868 199.337 601.868 191.276V30.0471L579.883 24.1843V17.5886L646.939 0L652.069 4.03071L650.603 76.95V191.276V217.659C650.848 227.186 651.092 236.346 651.336 245.141C651.451 249.288 651.594 253.164 651.763 256.768L669.291 259.798V267.859H652.435H600.036H581.348ZM726.912 263.461C739.126 270.057 752.684 273.355 767.586 273.355C777.113 273.355 786.029 271.889 794.335 268.958C802.641 266.271 810.214 261.996 817.054 256.133C823.894 250.026 829.512 242.209 833.909 232.681L828.413 228.284C823.527 233.659 817.786 238.056 811.191 241.476C804.839 244.651 797.511 246.239 789.205 246.239C779.434 246.239 770.761 243.674 763.188 238.544C755.616 233.17 749.631 225.353 745.234 215.093C740.836 204.833 738.638 192.374 738.638 177.717L738.638 177.351H832.81C833.543 174.175 834.031 171.488 834.276 169.289C834.52 167.091 834.642 164.159 834.642 160.495C834.642 147.792 831.955 136.555 826.581 126.784C821.206 116.768 813.389 108.951 803.129 103.332C793.114 97.7136 781.143 94.9043 767.219 94.9043C753.539 94.9043 740.592 98.4464 728.378 105.531C716.163 112.371 706.27 122.631 698.697 136.311C691.124 149.746 687.338 166.48 687.338 186.511C687.338 205.077 690.88 220.834 697.964 233.781C705.293 246.728 714.942 256.621 726.912 263.461ZM738.754 168.19C739.111 154.107 740.294 142.747 742.302 134.112C744.989 123.364 748.531 115.791 752.929 111.394C757.57 106.752 762.578 104.431 767.952 104.431C772.838 104.431 776.991 105.775 780.411 108.462C784.075 110.905 786.884 114.936 788.839 120.554C790.793 125.929 791.77 133.257 791.77 142.54C791.77 152.556 789.816 159.396 785.907 163.06C781.999 166.48 775.036 168.19 765.021 168.19H738.754ZM863.567 355.803C868.208 357.269 872.728 358.002 877.125 358.002C886.408 358.002 894.469 355.437 901.309 350.307C908.393 345.421 914.745 338.337 920.363 329.054C925.982 320.015 931.112 309.023 935.753 296.075L1003.06 111.423L1021.5 108.098V100.036H1007.21H995.481H966.9V108.098L991.46 111.517L972.763 164.894L953.676 217.865L915.714 112.551L941.25 108.098V100.036H911.203H858.437H847.078V108.098L862.89 111.347L930.436 282.915L926.226 294.61C922.318 304.137 918.653 312.198 915.233 318.794C911.813 325.39 908.271 330.764 904.607 334.917C903.314 336.487 901.916 337.97 900.414 339.365L896.546 334.917C890.927 328.077 885.675 323.435 880.789 320.993C876.148 318.55 871.14 317.328 865.766 317.328C859.414 317.328 854.162 319.038 850.009 322.458C845.856 325.878 843.536 330.52 843.047 336.383C844.513 341.757 847.078 345.91 850.742 348.841C854.651 352.017 858.926 354.338 863.567 355.803ZM290.367 273.355C280.107 273.355 270.58 272.012 261.785 269.324C252.991 266.637 244.319 262.851 235.769 257.965L237.235 212.528H244.563L263.604 259.425C265.482 260.242 267.318 260.976 269.114 261.629C274.488 263.584 281.45 264.561 290 264.561C296.596 264.561 302.215 263.461 306.856 261.263C311.497 259.064 315.04 255.889 317.482 251.736C320.17 247.583 321.513 242.697 321.513 237.079C321.513 228.284 318.215 221.689 311.62 217.291C305.268 212.894 297.695 208.741 288.901 204.833L278.641 200.436C271.801 197.504 265.205 194.084 258.854 190.176C252.502 186.023 247.25 180.771 243.097 174.419C238.945 167.824 236.868 159.396 236.868 149.136C236.868 138.631 239.189 129.349 243.83 121.287C248.472 112.981 255.556 106.508 265.083 101.866C274.61 97.225 286.458 94.9043 300.627 94.9043C310.154 94.9043 318.582 96.0036 325.91 98.2022C333.483 100.401 340.934 103.576 348.262 107.729L346.797 150.968H339.468L321.431 107.405C320.486 106.978 319.536 106.598 318.582 106.264C313.696 104.554 307.711 103.699 300.627 103.699C291.832 103.699 284.748 105.897 279.374 110.294C274.244 114.447 271.679 120.432 271.679 128.249C271.679 137.044 274.977 143.761 281.572 148.403C288.168 152.8 295.863 156.831 304.657 160.495L314.917 164.892C322.002 168.068 328.72 171.61 335.071 175.519C341.667 179.427 347.041 184.679 351.194 191.275C355.347 197.626 357.423 206.054 357.423 216.559C357.423 228.529 354.736 238.789 349.362 247.339C344.232 255.644 336.659 262.118 326.643 266.759C316.627 271.156 304.535 273.355 290.367 273.355ZM0.112305 259.798V267.859H19.1666H31.2587H62.4052V259.798L34.7663 256.427L55.6554 188.344H120.822L141.099 256.482L114.804 259.798V267.859H144.485H199.816H218.504V259.798L196.061 256.058L122.866 26.0166H95.3837L22.7252 256.568L0.112305 259.798ZM117.877 178.451L88.7357 80.5273L58.6909 178.451H117.877Z" fill="#2C2C2C" fill-opacity="0.11"/>
<path fill-rule="evenodd" clip-rule="evenodd" d="M1085.22 321.175C1091.57 324.595 1099.76 326.305 1109.77 326.305C1119.3 326.305 1128.46 324.106 1137.26 319.709C1146.29 315.312 1154.72 308.228 1162.54 298.456C1167.43 292.349 1171.46 286.12 1174.63 279.768C1177.81 273.417 1180.25 266.455 1181.96 258.882C1183.91 251.065 1185.14 242.148 1185.62 232.133C1186.36 222.117 1186.72 210.269 1186.72 196.589V141.991V86.2942C1186.92 71.6072 1187.19 57.1496 1187.53 42.9212L1212.01 39.3913V31.6963H1187.82H1133.96H1105.38V39.3913L1134.12 43.1086C1134.26 53.7643 1134.32 63.8845 1134.32 73.4691C1134.57 86.172 1134.81 98.0199 1135.06 109.013C1135.3 120.006 1135.42 130.266 1135.42 139.793C1135.67 149.076 1135.91 157.87 1136.16 166.176C1136.4 174.481 1136.52 182.421 1136.52 189.993C1136.77 197.322 1136.89 204.406 1136.89 211.246V239.828C1136.89 248.622 1136.77 257.172 1136.52 265.478C1136.52 273.539 1136.28 281.356 1135.79 288.929C1135.6 294.929 1135.25 301.005 1134.75 307.158L1123.7 298.09C1116.86 292.471 1111.61 288.807 1107.94 287.097C1104.28 285.631 1100.12 284.898 1095.48 284.898C1089.86 284.898 1085.22 286.486 1081.56 289.662C1077.65 292.838 1074.96 297.235 1073.5 302.853C1074.96 311.648 1078.87 317.755 1085.22 321.175ZM1307.81 277.936C1290.22 277.936 1275.08 274.272 1262.37 266.943C1249.92 259.37 1240.27 248.988 1233.43 235.797C1226.83 222.361 1223.53 206.727 1223.53 188.894C1223.53 171.061 1227.08 155.427 1234.16 141.991C1241.49 128.555 1251.5 118.173 1264.21 110.845C1276.91 103.272 1291.44 99.4854 1307.81 99.4854C1325.89 99.4854 1341.16 103.15 1353.62 110.478C1366.07 117.807 1375.6 128.189 1382.2 141.625C1389.04 154.816 1392.46 170.45 1392.46 188.528C1392.46 206.116 1388.79 221.628 1381.46 235.064C1374.14 248.5 1364.12 259.004 1351.42 266.577C1338.71 274.15 1324.18 277.936 1307.81 277.936ZM1307.81 268.409C1314.65 268.409 1320.39 265.966 1325.03 261.08C1329.92 255.95 1333.58 247.645 1336.03 236.163C1338.47 224.438 1339.69 208.559 1339.69 188.528C1339.69 168.008 1338.47 152.007 1336.03 140.525C1333.58 129.044 1329.92 120.86 1325.03 115.975C1320.39 111.089 1314.65 108.646 1307.81 108.646C1301.22 108.646 1295.48 111.211 1290.59 116.341C1285.95 121.227 1282.28 129.533 1279.6 141.258C1277.15 152.74 1275.93 168.618 1275.93 188.894C1275.93 208.925 1277.15 224.804 1279.6 236.53C1282.28 248.011 1285.95 256.195 1290.59 261.08C1295.48 265.966 1301.22 268.409 1307.81 268.409ZM1413.82 264.378V272.44H1432.51H1484.91H1501.76V264.378L1484.23 261.349C1484.06 257.745 1483.92 253.869 1483.81 249.721C1483.56 240.927 1483.32 231.766 1483.07 222.239V195.856V141.817C1484.53 140.579 1485.99 139.416 1487.47 138.327C1492.11 134.663 1496.88 131.975 1501.76 130.265C1506.65 128.311 1511.29 127.334 1515.69 127.334C1523.01 127.334 1528.39 129.41 1531.81 133.563C1535.47 137.716 1537.3 145.411 1537.3 156.648V195.856V222.239C1537.3 231.766 1537.18 240.927 1536.94 249.721C1536.82 253.84 1536.66 257.691 1536.43 261.274L1518.25 264.378V272.44H1535.47H1588.24H1605.09V264.378L1587.57 261.386C1587.4 257.771 1587.25 253.883 1587.14 249.721C1586.89 240.927 1586.65 231.766 1586.41 222.239V195.856V155.549C1586.41 136.006 1582.25 121.837 1573.95 113.043C1565.64 104.005 1554.53 99.4854 1540.6 99.4854C1532.05 99.4854 1523.99 101.073 1516.42 104.249C1509.09 107.18 1502.13 111.822 1495.53 118.173C1491.28 122.113 1487.12 126.763 1483.07 132.126V103.15L1477.94 99.4854L1412.35 118.54V125.135L1433.61 131.365C1433.85 136.739 1433.97 142.113 1433.97 147.488C1434.22 152.617 1434.34 158.236 1434.34 164.343V184.497V195.856C1434.34 203.918 1434.22 212.712 1433.97 222.239C1433.97 231.766 1433.85 240.927 1433.61 249.721C1433.49 253.807 1433.35 257.63 1433.19 261.188L1413.82 264.378ZM1705.26 277.936C1690.36 277.936 1676.8 274.638 1664.59 268.043C1652.62 261.203 1642.97 251.309 1635.64 238.362C1628.56 225.415 1625.01 209.658 1625.01 191.093C1625.01 171.061 1628.8 154.327 1636.37 140.892C1643.95 127.212 1653.84 116.952 1666.05 110.112C1678.27 103.027 1691.21 99.4854 1704.89 99.4854C1718.82 99.4854 1730.79 102.295 1740.8 107.913C1751.06 113.532 1758.88 121.349 1764.26 131.365C1769.63 141.136 1772.32 152.373 1772.32 165.076C1772.32 168.74 1772.2 171.672 1771.95 173.87C1771.71 176.069 1771.22 178.756 1770.48 181.932H1676.31L1676.31 182.298C1676.31 196.955 1678.51 209.414 1682.91 219.674C1687.31 229.934 1693.29 237.751 1700.86 243.125C1708.44 248.255 1717.11 250.82 1726.88 250.82C1735.19 250.82 1742.51 249.233 1748.87 246.057C1755.46 242.637 1761.2 238.24 1766.09 232.865L1771.58 237.263C1767.19 246.79 1761.57 254.607 1754.73 260.714C1747.89 266.577 1740.32 270.852 1732.01 273.539C1723.7 276.47 1714.79 277.936 1705.26 277.936ZM1679.98 138.693C1677.97 147.329 1676.79 158.688 1676.43 172.771H1702.7C1712.71 172.771 1719.67 171.061 1723.58 167.641C1727.49 163.977 1729.45 157.137 1729.45 147.121C1729.45 137.838 1728.47 130.51 1726.51 125.135C1724.56 119.517 1721.75 115.486 1718.09 113.043C1714.67 110.356 1710.51 109.013 1705.63 109.013C1700.25 109.013 1695.25 111.333 1690.6 115.975C1686.21 120.372 1682.66 127.945 1679.98 138.693ZM1852.83 277.936C1842.57 277.936 1833.04 276.593 1824.25 273.905C1815.46 271.218 1806.78 267.432 1798.23 262.546L1799.7 217.109H1807.03L1826.07 264.006C1827.95 264.823 1829.78 265.557 1831.58 266.21C1836.95 268.165 1843.91 269.142 1852.46 269.142C1859.06 269.142 1864.68 268.043 1869.32 265.844C1873.96 263.645 1877.5 260.47 1879.95 256.317C1882.63 252.164 1883.98 247.278 1883.98 241.66C1883.98 232.865 1880.68 226.27 1874.08 221.873C1867.73 217.475 1860.16 213.323 1851.37 209.414L1841.11 205.017C1834.27 202.085 1827.67 198.665 1821.32 194.757C1814.97 190.604 1809.71 185.352 1805.56 179C1801.41 172.405 1799.33 163.977 1799.33 153.717C1799.33 143.213 1801.65 133.93 1806.29 125.868C1810.94 117.563 1818.02 111.089 1827.55 106.448C1837.07 101.806 1848.92 99.4854 1863.09 99.4854C1872.62 99.4854 1881.05 100.585 1888.37 102.783C1895.95 104.982 1903.4 108.158 1910.73 112.31L1909.26 155.549H1901.93L1883.9 111.986C1882.95 111.559 1882 111.179 1881.05 110.845C1876.16 109.135 1870.18 108.28 1863.09 108.28C1854.3 108.28 1847.21 110.478 1841.84 114.875C1836.71 119.028 1834.14 125.013 1834.14 132.83C1834.14 141.625 1837.44 148.342 1844.04 152.984C1850.63 157.381 1858.33 161.412 1867.12 165.076L1877.38 169.473C1884.47 172.649 1891.18 176.191 1897.54 180.1C1904.13 184.008 1909.51 189.26 1913.66 195.856C1917.81 202.208 1919.89 210.635 1919.89 221.14C1919.89 233.11 1917.2 243.37 1911.83 251.92C1906.7 260.225 1899.12 266.699 1889.11 271.34C1879.09 275.738 1867 277.936 1852.83 277.936Z" fill="#2C2C2C" fill-opacity="0.1"/>
</svg>
